/* XPM */
static char * enemy_xpm[] = {
"50 50 638 2",
"  	c None",
". 	c #2B3D54",
"+ 	c #636578",
"@ 	c #54415B",
"# 	c #55415D",
"$ 	c #54415D",
"% 	c #69677A",
"& 	c #414D62",
"* 	c #5E5F73",
"= 	c #5E4466",
"- 	c #7D5787",
"; 	c #694970",
"> 	c #47455C",
", 	c #2F3F56",
"' 	c #606175",
") 	c #5D4365",
"! 	c #7E5788",
"~ 	c #7F5789",
"{ 	c #694971",
"] 	c #454259",
"^ 	c #575C6F",
"/ 	c #543D5C",
"( 	c #7F5788",
"_ 	c #7E5787",
": 	c #7E5789",
"< 	c #694A71",
"[ 	c #464259",
"} 	c #2D3E55",
"| 	c #706F83",
"1 	c #614569",
"2 	c #7F578A",
"3 	c #805888",
"4 	c #46425A",
"5 	c #3C465C",
"6 	c #533D5A",
"7 	c #6A4871",
"8 	c #3A485D",
"9 	c #6A687B",
"0 	c #66496E",
"a 	c #7F5888",
"b 	c #7F5688",
"c 	c #7E5688",
"d 	c #575F73",
"e 	c #533F5B",
"f 	c #7D5885",
"g 	c #7F5787",
"h 	c #75507D",
"i 	c #5C4C69",
"j 	c #51576A",
"k 	c #636B70",
"l 	c #3E3841",
"m 	c #59455D",
"n 	c #5E4864",
"o 	c #705076",
"p 	c #5A465D",
"q 	c #533D57",
"r 	c #615F72",
"s 	c #504A58",
"t 	c #413342",
"u 	c #3E3342",
"v 	c #303230",
"w 	c #534356",
"x 	c #544358",
"y 	c #544359",
"z 	c #534257",
"A 	c #424A48",
"B 	c #2F453B",
"C 	c #48344B",
"D 	c #615E73",
"E 	c #5B4B63",
"F 	c #6A4F73",
"G 	c #305B40",
"H 	c #527F27",
"I 	c #1B5633",
"J 	c #1B5634",
"K 	c #1A5634",
"L 	c #386B2D",
"M 	c #568A24",
"N 	c #417735",
"O 	c #3D464B",
"P 	c #5F5F71",
"Q 	c #686478",
"R 	c #73537C",
"S 	c #785A83",
"T 	c #246839",
"U 	c #5C9827",
"V 	c #13643A",
"W 	c #136439",
"X 	c #226A3B",
"Y 	c #4C8A2A",
"Z 	c #4B852E",
"` 	c #545A63",
" .	c #675272",
"..	c #42455C",
"+.	c #6C6377",
"@.	c #7B5484",
"#.	c #785983",
"$.	c #246838",
"%.	c #5A9829",
"&.	c #146237",
"*.	c #126338",
"=.	c #146239",
"-.	c #126437",
";.	c #41812E",
">.	c #47852F",
",.	c #5A5D6A",
"'.	c #63456B",
").	c #3E3D56",
"!.	c #6D6478",
"~.	c #785984",
"{.	c #1C613D",
"].	c #2D7233",
"^.	c #5D9926",
"/.	c #5E9827",
"(.	c #4A862D",
"_.	c #1C6639",
":.	c #5B5D69",
"<.	c #62456A",
"[.	c #45445C",
"}.	c #564B62",
"|.	c #775380",
"1.	c #7C5787",
"2.	c #705A7B",
"3.	c #1B603D",
"4.	c #1E6539",
"5.	c #1F643A",
"6.	c #1A6438",
"7.	c #515C63",
"8.	c #7D5786",
"9.	c #7D5687",
"0.	c #62476A",
"a.	c #56586C",
"b.	c #314057",
"c.	c #5C4C67",
"d.	c #7A5482",
"e.	c #7B5682",
"f.	c #4D3B57",
"g.	c #4C3A55",
"h.	c #483850",
"i.	c #493850",
"j.	c #4B3952",
"k.	c #694A72",
"l.	c #7E5889",
"m.	c #614368",
"n.	c #56576B",
"o.	c #656074",
"p.	c #76537D",
"q.	c #77537F",
"r.	c #553B5A",
"s.	c #543B5B",
"t.	c #553B5C",
"u.	c #684A6E",
"v.	c #64466C",
"w.	c #605D73",
"x.	c #36435A",
"y.	c #39455B",
"z.	c #695C75",
"A.	c #785380",
"B.	c #7E5888",
"C.	c #7D5887",
"D.	c #5C4264",
"E.	c #3A3E56",
"F.	c #4F485F",
"G.	c #75507E",
"H.	c #805789",
"I.	c #7F5889",
"J.	c #7E5887",
"K.	c #5C4364",
"L.	c #383C55",
"M.	c #474F63",
"N.	c #665370",
"O.	c #795281",
"P.	c #7F5687",
"Q.	c #7C5785",
"R.	c #645C72",
"S.	c #645C73",
"T.	c #72597F",
"U.	c #7F5689",
"V.	c #6A4A70",
"W.	c #504A62",
"X.	c #38465B",
"Y.	c #4A5065",
"Z.	c #6F5F7A",
"`.	c #765380",
" +	c #7E5689",
".+	c #7C5886",
"++	c #605B70",
"@+	c #5A6267",
"#+	c #427F31",
"$+	c #437F30",
"%+	c #427F30",
"&+	c #42802F",
"*+	c #41802F",
"=+	c #4A6F55",
"-+	c #625B70",
";+	c #725A7D",
">+	c #6B4A72",
",+	c #635E74",
"'+	c #3A465C",
")+	c #4E5266",
"!+	c #645270",
"~+	c #76527F",
"{+	c #585E67",
"]+	c #458232",
"^+	c #45832D",
"/+	c #4B862B",
"(+	c #4B872C",
"_+	c #4B862C",
":+	c #4B872D",
"<+	c #47862D",
"[+	c #2E7334",
"}+	c #465F59",
"|+	c #735A7E",
"1+	c #6A4C71",
"2+	c #4F4961",
"3+	c #5E5B70",
"4+	c #6C4A75",
"5+	c #7D5987",
"6+	c #565E66",
"7+	c #4C852E",
"8+	c #629C24",
"9+	c #12643B",
"0+	c #12633A",
"a+	c #13633A",
"b+	c #13643B",
"c+	c #317334",
"d+	c #49852D",
"e+	c #2F7234",
"f+	c #665C74",
"g+	c #6C4A73",
"h+	c #645D73",
"i+	c #3A4158",
"j+	c #665372",
"k+	c #78537F",
"l+	c #246242",
"m+	c #639D22",
"n+	c #609A21",
"o+	c #146438",
"p+	c #12643A",
"q+	c #4B882B",
"r+	c #417F31",
"s+	c #655D74",
"t+	c #7E588A",
"u+	c #6D4D75",
"v+	c #4D475F",
"w+	c #414058",
"x+	c #694A70",
"y+	c #7C5986",
"z+	c #649C21",
"A+	c #619A24",
"B+	c #14633A",
"C+	c #13633B",
"D+	c #397A32",
"E+	c #5D9723",
"F+	c #417F2E",
"G+	c #665B74",
"H+	c #69486F",
"I+	c #7A5484",
"J+	c #725179",
"K+	c #6A6579",
"L+	c #56596C",
"M+	c #624B6C",
"N+	c #7A5383",
"O+	c #694972",
"P+	c #74527C",
"Q+	c #246144",
"R+	c #34782F",
"S+	c #649D24",
"T+	c #4F8D27",
"U+	c #126439",
"V+	c #106439",
"W+	c #116439",
"X+	c #377A30",
"Y+	c #5E9822",
"Z+	c #4D892D",
"`+	c #226C38",
" @	c #655C72",
".@	c #59405F",
"+@	c #775280",
"@@	c #7E5786",
"#@	c #7C5685",
"$@	c #503E5B",
"%@	c #5D5C6F",
"&@	c #67486D",
"*@	c #805788",
"=@	c #624469",
"-@	c #724F7A",
";@	c #474350",
">@	c #19613C",
",@	c #327633",
"'@	c #649C26",
")@	c #5B9427",
"!@	c #5A9527",
"~@	c #5B9527",
"{@	c #5F9923",
"]@	c #4E8B2C",
"^@	c #226938",
"/@	c #315046",
"(@	c #6E507A",
"_@	c #795382",
":@	c #5C4164",
"<@	c #7B5584",
"[@	c #73527C",
"}@	c #6E677B",
"|@	c #5C5C6F",
"1@	c #67486F",
"2@	c #67496F",
"3@	c #4F3855",
"4@	c #714F7A",
"5@	c #51385A",
"6@	c #443D4E",
"7@	c #41434B",
"8@	c #286B37",
"9@	c #266C37",
"0@	c #266C36",
"a@	c #266B37",
"b@	c #266C35",
"c@	c #266B35",
"d@	c #345744",
"e@	c #453E4D",
"f@	c #694C72",
"g@	c #7D5585",
"h@	c #563C5D",
"i@	c #533C5B",
"j@	c #7B5683",
"k@	c #5F5369",
"l@	c #5E5F72",
"m@	c #694C70",
"n@	c #674970",
"o@	c #4D3755",
"p@	c #6D4C74",
"q@	c #7A5683",
"r@	c #503757",
"s@	c #4D3753",
"t@	c #473C51",
"u@	c #493B51",
"v@	c #463B4F",
"w@	c #463B4E",
"x@	c #473B4E",
"y@	c #483C4F",
"z@	c #65496D",
"A@	c #7D5486",
"B@	c #7D5686",
"C@	c #7F568A",
"D@	c #53576B",
"E@	c #63546D",
"F@	c #7B5785",
"G@	c #795482",
"H@	c #5F536A",
"I@	c #2F4056",
"J@	c #524F66",
"K@	c #55455E",
"L@	c #503D56",
"M@	c #6F4C77",
"N@	c #7C5684",
"O@	c #75527E",
"P@	c #503857",
"Q@	c #503758",
"R@	c #4E3955",
"S@	c #66466D",
"T@	c #7E5687",
"U@	c #583E5F",
"V@	c #656579",
"W@	c #444D62",
"X@	c #5D4E69",
"Y@	c #76537F",
"Z@	c #5F5269",
"`@	c #304056",
" #	c #37455B",
".#	c #4E485F",
"+#	c #6E4D77",
"@#	c #7D5788",
"##	c #735980",
"$#	c #73597E",
"%#	c #73597F",
"&#	c #735A7F",
"*#	c #74597F",
"=#	c #735A7D",
"-#	c #795883",
";#	c #503958",
">#	c #4D5268",
",#	c #5E6376",
"'#	c #5D5269",
")#	c #6B6478",
"!#	c #48425B",
"~#	c #71587E",
"{#	c #665E74",
"]#	c #2C7035",
"^#	c #2C7036",
"/#	c #2C7135",
"(#	c #2B7035",
"_#	c #2B7037",
":#	c #2C7037",
"<#	c #54655F",
"[#	c #72597C",
"}#	c #795884",
"|#	c #7F5887",
"1#	c #513958",
"2#	c #675C73",
"3#	c #337538",
"4#	c #377930",
"5#	c #579226",
"6#	c #579227",
"7#	c #579228",
"8#	c #589226",
"9#	c #45832C",
"0#	c #206B37",
"a#	c #555D67",
"b#	c #795784",
"c#	c #513959",
"d#	c #685B74",
"e#	c #3D7A33",
"f#	c #639C24",
"g#	c #4D892C",
"h#	c #126339",
"i#	c #126438",
"j#	c #12633C",
"k#	c #3D7C30",
"l#	c #458330",
"m#	c #236C37",
"n#	c #685B75",
"o#	c #513A59",
"p#	c #6E4D76",
"q#	c #80578A",
"r#	c #7C5988",
"s#	c #266141",
"t#	c #649C20",
"u#	c #619A25",
"v#	c #136539",
"w#	c #12633B",
"x#	c #13633C",
"y#	c #528B2A",
"z#	c #3C7C33",
"A#	c #695B75",
"B#	c #4E5368",
"C#	c #7C5887",
"D#	c #649D20",
"E#	c #609A25",
"F#	c #136437",
"G#	c #11643A",
"H#	c #337734",
"I#	c #599425",
"J#	c #3B7B33",
"K#	c #695B77",
"L#	c #639D20",
"M#	c #639C22",
"N#	c #43812F",
"O#	c #357534",
"P#	c #5A9326",
"Q#	c #539028",
"R#	c #2C6F35",
"S#	c #695A76",
"T#	c #3E4D4E",
"U#	c #407C33",
"V#	c #44822D",
"W#	c #649B24",
"X#	c #4F892C",
"Y#	c #4E892B",
"Z#	c #4F8A2B",
"`#	c #5A9524",
" $	c #538E2A",
".$	c #2F5347",
"+$	c #6F5379",
"@$	c #575A6D",
"#$	c #54455E",
"$$	c #523857",
"%$	c #3B474A",
"&$	c #394E48",
"*$	c #3B7B32",
"=$	c #3C7B31",
"-$	c #3B7B31",
";$	c #3D7A32",
">$	c #3A6442",
",$	c #3D4849",
"'$	c #624C6B",
")$	c #7B5585",
"!$	c #416462",
"~$	c #4C585B",
"{$	c #65466C",
"]$	c #7B5483",
"^$	c #72507A",
"/$	c #4E3654",
"($	c #41434C",
"_$	c #40454C",
":$	c #3F454C",
"<$	c #3F454B",
"[$	c #5F4B69",
"}$	c #74507D",
"|$	c #7A5585",
"1$	c #4D5368",
"2$	c #436264",
"3$	c #396F56",
"4$	c #4F8649",
"5$	c #51703D",
"6$	c #6D4B75",
"7$	c #77527E",
"8$	c #6E4E76",
"9$	c #4D3553",
"0$	c #4C3652",
"a$	c #4C3753",
"b$	c #63456A",
"c$	c #7B5485",
"d$	c #513B56",
"e$	c #3F6D59",
"f$	c #38505E",
"g$	c #4E6B6D",
"h$	c #528859",
"i$	c #5F9725",
"j$	c #629B21",
"k$	c #5A753C",
"l$	c #503B54",
"m$	c #714F78",
"n$	c #7D5588",
"o$	c #785381",
"p$	c #795381",
"q$	c #7B5685",
"r$	c #5C4265",
"s$	c #648A33",
"t$	c #5D962A",
"u$	c #58846E",
"v$	c #3E5463",
"w$	c #466667",
"x$	c #3D7C33",
"y$	c #679D1F",
"z$	c #679F1E",
"A$	c #669B22",
"B$	c #659727",
"C$	c #5A6647",
"D$	c #715177",
"E$	c #5B4461",
"F$	c #4A3B4C",
"G$	c #669525",
"H$	c #679E20",
"I$	c #5D9929",
"J$	c #467A61",
"K$	c #455967",
"L$	c #4A676A",
"M$	c #417D3D",
"N$	c #639B23",
"O$	c #649D1F",
"P$	c #689D1F",
"Q$	c #679E1E",
"R$	c #669B21",
"S$	c #576245",
"T$	c #4E404F",
"U$	c #4E3F4F",
"V$	c #4D3F4F",
"W$	c #4F3F4F",
"X$	c #785581",
"Y$	c #7C5686",
"Z$	c #7C5585",
"`$	c #624867",
" %	c #4D404E",
".%	c #4D3F4E",
"+%	c #638930",
"@%	c #689924",
"#%	c #679D20",
"$%	c #669E1F",
"%%	c #619C22",
"&%	c #2E6A4B",
"*%	c #4A5F6B",
"=%	c #4A6A68",
"-%	c #487C61",
";%	c #528947",
">%	c #5F9924",
",%	c #5F9824",
"'%	c #679D22",
")%	c #6A9D26",
"!%	c #689C25",
"~%	c #699C25",
"{%	c #699A28",
"]%	c #4E4B46",
"^%	c #4E4649",
"/%	c #4F474A",
"(%	c #4E4749",
"_%	c #4E4849",
":%	c #4F474B",
"<%	c #4E484A",
"[%	c #4F464A",
"}%	c #5F8036",
"|%	c #699C27",
"1%	c #689D25",
"2%	c #679E1F",
"3%	c #649F1E",
"4%	c #5E9922",
"5%	c #5E9924",
"6%	c #5C972C",
"7%	c #51806B",
"8%	c #455A68",
"9%	c #416663",
"0%	c #216346",
"a%	c #216345",
"b%	c #508B3C",
"c%	c #5B9623",
"d%	c #5B9723",
"e%	c #5B9724",
"f%	c #5B9624",
"g%	c #5C9622",
"h%	c #659D23",
"i%	c #689E21",
"j%	c #689E22",
"k%	c #689D21",
"l%	c #689E20",
"m%	c #5C9623",
"n%	c #5C9724",
"o%	c #5C9624",
"p%	c #5C9625",
"q%	c #37714D",
"r%	c #246245",
"s%	c #3B6E57",
"t%	c #415664",
"u%	c #557972",
"v%	c #42725E",
"w%	c #437260",
"x%	c #43715F",
"y%	c #42725F",
"z%	c #477862",
"A%	c #56922C",
"B%	c #599227",
"C%	c #599327",
"D%	c #5A9327",
"E%	c #5A9328",
"F%	c #4E854E",
"G%	c #43725F",
"H%	c #43725E",
"I%	c #42715D",
"J%	c #3A545E",
"K%	c #445965",
"L%	c #4B7766",
"M%	c #3E6D5B",
"N%	c #406F5D",
"O%	c #3C6C5A",
"P%	c #41705F",
"Q%	c #3A6A58",
"R%	c #2B604D",
"S%	c #356753",
"T%	c #44715F",
"U%	c #496D6A",
"                                                                                                    ",
"                                                . + @ # $ % &                                       ",
"                                                * = - - - ; >                                       ",
"                                            , ' ) ! ~ ~ ~ { ]                                       ",
"                                            ^ / ( ( _ ~ : < [                                       ",
"                                          } | 1 2 3 ~ ~ ~ { 4                                       ",
"                                          5 6 _ ~ ~ ~ ~ : 7 4                                       ",
"                                        8 9 0 a b c c ~ ~ 7 4                                       ",
"                                        d e f b g g _ ( ! h i j                                     ",
"                                        k l m n ! ~ : ~ o p q r                                     ",
"                                        s t u v w x y z A B C D                                     ",
"                                        E F G H I J K L M N O P                                     ",
"                                      Q R S T U V W W X Y Z `  ...                                  ",
"                                      +.@.#.$.%.&.*.=.-.;.>.,.'.).                                  ",
"                                      !.@.~.{.].^.^.^./.(._.:.<.[.                                  ",
"                                    }.|.c 1.2.3.4.5.4.5.6.7.8.9.0.a.                                ",
"                                  b.c.d.~ ! e.f.g.h.i.i.j.k.b l.m.n.                                ",
"                                  o.p.~ ~ ( _ b q.r.s.t.u.! ! ( v.w.x.                              ",
"                                y.z.A.( ! c c ~ ~ ! : ! B.c ! ~ C.D.E.                              ",
"                                F.G.2 ( ! c ~ ~ ~ ~ ( H.I.! _ H.J.K.L.                              ",
"                              M.N.O.~ ~ c c P.Q.R.R.S.S.S.T.( U.l.V.W.X.                            ",
"                            Y.Z.`.~ ~ c  +.+++@+#+$+%+&+*+=+-+;+: 2 >+,+'+                          ",
"                          )+!+~+H.! ~ ~ C.{+]+^+/+(+_+(+:+<+[+}+|+B.H.1+2+X.                        ",
"                          3+4+b H.~ ~ 5+6+7+8+%+9+0+a+a+b+c+d+e+f+~ 2 H.g+h+                        ",
"                        i+j+k+~ ~ ~ ~ J.l+m+n+o+0+p+9+a+p+p+q+r+s+t+( : _ u+v+.                     ",
"                        w+x+( U.~ ~ ~ y+l+z+A+B+p+p+V a+C+D+E+F+G+a H+I+U.b J+K+                    ",
"                      L+M+N+~ O+P+( ~ C.Q+R+S+T+U+V+W+a+X+Y+Z+`+ @H..@+@@@! #@$@                    ",
"                      %@&@*@a =@-@~ ~ t+;@>@,@'@)@!@~@~@{@]@^@/@(@B._@:@<@H.! [@}@                  ",
"                      |@1@b 2@3@4@: ~ g 5@6@7@8@9@0@a@b@c@d@e@f@g@H.g h@i@j@! d.k@                  ",
"                      l@m@n@o@p@8.U.~ ( q@r@s@t@u@v@w@x@y@z@A@B@~ C@a h@D@E@F@G@H@                  ",
"                      I@J@K@L@M@b ~ c ! ~ N@B@@@O@P@Q@R@S@T@( ~ ! b _ U@V@W@X@Y@Z@                  ",
"                        `@ #.#+#! b c ! c b @#8.##$#%#&#*#=#-#( ~ U.c _ ;#>#,#'#)#                  ",
"                            !#+#! U.c c c @#~#{#]#^#/#(#_#:#<#[#}#|#~ ( 1#>#                        ",
"                            !#+#I.U.~ b J.2#3#4#5#6#6#6#7#8#9#0#a#b#~ ( c#>#                        ",
"                            !#+#! ~ ~ ! d#e#f#g#W p+h#p+i#j#k#l#m#n#~ ! o#>#                        ",
"                            !#p#~ q#~ r#s#t#u#v#h#p+b+b+w#x#9+y#z#A#~ I.1#B#                        ",
"                            !#+#! ~ c C#s#D#E#F#p+G#9+0+0+W+H#I#J#K#~ ( c#>#                        ",
"                            !#+#! U.! 5+s#L#M#N#U+p+p+a+0+O#P#Q#R#S#~ ! 1#B#                        ",
"                            !#+#c U.c ~ T#U#V#W#X#Y#Z#Z#Z#`# $(#.$+$c ( ;#>#                        ",
"                          @$#$+#! U.c ! $$%$&$*$=$-$-$-$-$;$>$,$'$)$~ ! 1#>#                        ",
"                        !$~${$]$( ~ ~ _ ^$/$i.($_$:$_$_$_$<$[$}$|$~ ! ( c#1$                        ",
"                    2$3$4$5$6$: C@~ ~ ( ( 7$~+~+8$9$0$a$0$b$c$( ~ U.~ B.d$e$f$                      ",
"                  g$h$i$j$k$l$m$~ ( c ~ ~ ~ c c n$o$_@_@p$q$U.( ~ ~ a r$s$t$u$v$                    ",
"                  w$x$y$z$A$B$C$D$b _ ( 8.! c ~ c c ~ ~ ~ ~ ~ ~ C.! E$F$G$H$I$J$K$                  ",
"                  L$M$N$O$P$Q$R$S$T$U$V$W$X$)$Y$)$)$)$Y$)$Z$)$`$ %.%+%@%#%$%%%&%*%                  ",
"                    =%-%;%>%,%t#'%)%!%~%{%]%^%/%(%_%/%/%:%<%[%}%|%1%2%3%4%5%6%7%8%                  ",
"                        9%0%a%b%c%d%e%f%g%h%i%j%i%k%i%i%i%l%E#m%e%n%o%p%q%r%s%t%                    ",
"                              u%v%w%x%y%z%A%B%C%C%C%C%D%E%C%F%G%H%H%H%I%J%                          ",
"                                        K%L%M%N%O%P%Q%R%S%T%U%                                      ",
"                                                                                                    "};
