/* XPM */
static char * bernard_r_xpm[] = {
"50 50 11 1",
" 	c None",
".	c #424542",
"+	c #212021",
"@	c #000000",
"#	c #FF8E73",
"$	c #180C00",
"%	c #4A2800",
"&	c #9C4D39",
"*	c #949694",
"=	c #FFFBFF",
"-	c #FF8A00",
"                                                  ",
"                 .    .                           ",
"                  ....+.                          ",
"                 .@+##+..                         ",
"                .$@%##&.                          ",
"               .@@@####&                          ",
"                @&&####&                          ",
"                  &#&$.*..*@                      ",
"                &&&##&==..=                       ",
"               &#####&==&&*                       ",
"                &&&&##..##&                       ",
"                &#&#######&                       ",
"                  &########                       ",
"                   ########                       ",
"                   ######&                        ",
"                    ###&#&                        ",
"                     ####                         ",
"                     &##&                         ",
"                      &#                          ",
"                      &&                          ",
"                     &&                           ",
"                   **&&                           ",
"                   *@+*@@                         ",
"                  *=*@++&#                        ",
"                  ===$**#*                        ",
"                 ===*====--                       ",
"                 *==*====#-                       ",
"                 &**=**+.*+                       ",
"                &#& *++...+.                      ",
"                ##  +....+..                      ",
"                #&  +.....+.+                     ",
"                &#  ......+..                     ",
"                 #&+......++.                     ",
"                  &........+.                     ",
"                  &&.......+.+&                   ",
"                   ##&....++..&                   ",
"                   ##&....++...                   ",
"                  &&#&...+ ++..                   ",
"                  &&&&...+  ...+                  ",
"                    &&+..    +.+                  ",
"                      +..    +++                  ",
"                      +++    ++                   ",
"                     +++    +++                   ",
"                    +++    +.+                    ",
"                    .+     *=                     ",
"                   **     ==*                     ",
"                  ***.  %.**$$$$$$$               ",
"                  .+%%%$$%%.%$$$$$%               ",
"                 $%%%%%%%%$%%%%%%%$               ",
"                   $$$$$$$                        "};
