/* XPM */
static char * bernard_u_xpm[] = {
"50 50 10 1",
" 	c None",
".	c #424542",
"+	c #212021",
"@	c #000000",
"#	c #180C00",
"$	c #949694",
"%	c #FFFBFF",
"&	c #9C4D39",
"*	c #FF8E73",
"=	c #4A2800",
"                                                  ",
"                       .   .                      ",
"                      ++.++                       ",
"                     +@@@@+.                      ",
"                    .@@@@@@#+.                    ",
"                    +@@@@@@@@+                    ",
"                     @@@@@@@@                     ",
"                  @@@+@@@@@+@                     ",
"                  @$%&@@@@@..#                    ",
"                  @%$*@@@@@$$&&*&                 ",
"                &*&$&*&...&&&&**                  ",
"                 &*&=******&&&*&                  ",
"                  &*=******&&&&                   ",
"                   &&******&&                     ",
"                    &******&                      ",
"                     *****&                       ",
"                     &***&                        ",
"                      ***&                        ",
"                      &**                         ",
"                       &*                         ",
"                        &                         ",
"                        $$                        ",
"                     @.$$$$                       ",
"                     $%%%%$                       ",
"                   $$%%%%%%%                      ",
"                  $%%%$%%%$%%                     ",
"                  $%%$$$$$$%%$                    ",
"                  *$$$$$$$$$$&                    ",
"                 &*&$$$$$$$$&*                    ",
"                 &&+$$%%$$$.&**                   ",
"                 &.+..$$$.++ **                   ",
"                 &....#.#+...&*                   ",
"                 &........+++&*                   ",
"                 &..........+&&                   ",
"                &&..........+&&                   ",
"                *&...........*&                   ",
"               &*&.+....+..++**                   ",
"               &*&++++  +++++&*&                  ",
"               &&&+++   +++++&&&                  ",
"               &&&.+     ++++&&                   ",
"                +++      ++++                     ",
"                +..       +.+                     ",
"                +...      .+                      ",
"                 +.+     +.                       ",
"                  ..     ..+                      ",
"                   $$    $.                       ",
"            ####   $%$  $%$####                   ",
"            #==####$$.##$$.#=###                  ",
"            ===========#=======#                  ",
"             #####=====#====##                    "};
