/* XPM */
static char * cherry_xpm[] = {
"50 50 439 2",
"  	c None",
". 	c #9C948B",
"+ 	c #757481",
"@ 	c #BFC1BA",
"# 	c #A395AE",
"$ 	c #B9B4B5",
"% 	c #B7AFB6",
"& 	c #ACA4AD",
"* 	c #A798B0",
"= 	c #8C7CA3",
"- 	c #8871A9",
"; 	c #5E2C9B",
"> 	c #457893",
", 	c #6E6569",
"' 	c #807B8B",
") 	c #C6C1D0",
"! 	c #A085C6",
"~ 	c #B29EC4",
"{ 	c #A67FC7",
"] 	c #916DB3",
"^ 	c #844CB8",
"/ 	c #5E3093",
"( 	c #5A2C98",
"_ 	c #41307D",
": 	c #408A9F",
"< 	c #A76A95",
"[ 	c #6F6467",
"} 	c #817C8A",
"| 	c #C4C0CD",
"1 	c #9D81C2",
"2 	c #B19DBF",
"3 	c #A880C6",
"4 	c #8D65AF",
"5 	c #853EBE",
"6 	c #561C8D",
"7 	c #501B92",
"8 	c #392572",
"9 	c #4296A3",
"0 	c #AD7997",
"a 	c #6E6466",
"b 	c #807A8B",
"c 	c #C1BACC",
"d 	c #9A7BC1",
"e 	c #A78ABE",
"f 	c #A173C4",
"g 	c #8451AD",
"h 	c #8137BE",
"i 	c #561E91",
"j 	c #4D299A",
"k 	c #372F78",
"l 	c #4399A5",
"m 	c #B18499",
"n 	c #6E6566",
"o 	c #7D7C85",
"p 	c #BECDBC",
"q 	c #91B098",
"r 	c #77A48E",
"s 	c #6F9F94",
"t 	c #5D9586",
"u 	c #4C838D",
"v 	c #405A9A",
"w 	c #4346A6",
"x 	c #36509D",
"y 	c #46899A",
"z 	c #6F6566",
"A 	c #7F8184",
"B 	c #C8E4AE",
"C 	c #94D264",
"D 	c #68C800",
"E 	c #64C800",
"F 	c #51C00C",
"G 	c #08AC4D",
"H 	c #2174A2",
"I 	c #2C59AD",
"J 	c #2C64AF",
"K 	c #469199",
"L 	c #6F6568",
"M 	c #7F8083",
"N 	c #C4E2A8",
"O 	c #8FCE5E",
"P 	c #69C600",
"Q 	c #63C505",
"R 	c #43BA19",
"S 	c #05AF3F",
"T 	c #1D8D93",
"U 	c #2C80A8",
"V 	c #2B70B0",
"W 	c #459998",
"X 	c #6F6768",
"Y 	c #7E7E82",
"Z 	c #AFDB87",
"` 	c #80CD32",
" .	c #6BC912",
"..	c #48BC19",
"+.	c #2CB034",
"@.	c #2CAA63",
"#.	c #3379B1",
"$.	c #3768B5",
"%.	c #349DAF",
"&.	c #4A9B9A",
"*.	c #6F6769",
"=.	c #84828C",
"-.	c #E4E5D3",
";.	c #E2DCA8",
">.	c #E8D271",
",.	c #E9C506",
"'.	c #E4B108",
").	c #E67124",
"!.	c #E47722",
"~.	c #D26969",
"{.	c #CD1E8C",
"].	c #9A755D",
"^.	c #6F676A",
"/.	c #86858F",
"(.	c #EAEAD4",
"_.	c #EBDC82",
":.	c #F0D338",
"<.	c #EFCC02",
"[.	c #EBB516",
"}.	c #EC672E",
"|.	c #DE7259",
"1.	c #C92882",
"2.	c #C7128A",
"3.	c #9D785A",
"4.	c #736C6E",
"5.	c #86828A",
"6.	c #EFDF94",
"7.	c #F0D72A",
"8.	c #EECC00",
"9.	c #EEBF00",
"0.	c #E78025",
"a.	c #DF6A55",
"b.	c #CF287D",
"c.	c #C70586",
"d.	c #CF2790",
"e.	c #9E835E",
"f.	c #786F73",
"g.	c #867C86",
"h.	c #F1C19B",
"i.	c #EFA86E",
"j.	c #EF9F69",
"k.	c #EB7B62",
"l.	c #E55F5D",
"m.	c #D2247B",
"n.	c #B8078C",
"o.	c #A1047E",
"p.	c #B44883",
"q.	c #869687",
"r.	c #B4A0A5",
"s.	c #ED74AD",
"t.	c #E8289D",
"u.	c #E72299",
"v.	c #E92093",
"w.	c #E61A8E",
"x.	c #C30A98",
"y.	c #640E8E",
"z.	c #3C0A5E",
"A.	c #413E83",
"B.	c #4893A0",
"C.	c #9B9398",
"D.	c #DAC4CE",
"E.	c #E039B0",
"F.	c #E92C9B",
"G.	c #EA2796",
"H.	c #EA2294",
"I.	c #DA1293",
"J.	c #AF0BAE",
"K.	c #550D8E",
"L.	c #3A095E",
"M.	c #3E2F6F",
"N.	c #4B90A1",
"O.	c #8E888F",
"P.	c #D5D2CC",
"Q.	c #C6B5D4",
"R.	c #A967D2",
"S.	c #C93ABE",
"T.	c #D52EB3",
"U.	c #D623AC",
"V.	c #AF1BB6",
"W.	c #7E12BA",
"X.	c #6400A7",
"Y.	c #55008C",
"Z.	c #473479",
"`.	c #4C8FA3",
" +	c #8C8591",
".+	c #D5CFD4",
"++	c #DCD6D4",
"@+	c #A87CD8",
"#+	c #9153DD",
"$+	c #9149D7",
"%+	c #9345D6",
"&+	c #973AD1",
"*+	c #8D35D4",
"=+	c #8E69C5",
"-+	c #869D91",
";+	c #50C247",
">+	c #387793",
",+	c #457398",
"'+	c #949091",
")+	c #B9AEB0",
"!+	c #BB98D6",
"~+	c #AE87E1",
"{+	c #A076DB",
"]+	c #9250E1",
"^+	c #8D47DC",
"/+	c #8F47D8",
"(+	c #934ADC",
"_+	c #8D3FD9",
":+	c #8C5BCD",
"<+	c #A9D994",
"[+	c #BEE79D",
"}+	c #60CF30",
"|+	c #2B8B92",
"1+	c #49BE8E",
"2+	c #8E6894",
"3+	c #BAACB5",
"4+	c #DDD7C6",
"5+	c #EBE6BB",
"6+	c #E5BF8E",
"7+	c #A366D0",
"8+	c #934DE1",
"9+	c #8A44D8",
"0+	c #8D46D9",
"a+	c #974FE1",
"b+	c #8C3EDA",
"c+	c #8633D5",
"d+	c #7F59BF",
"e+	c #71D42C",
"f+	c #80D830",
"g+	c #5AC840",
"h+	c #267DA1",
"i+	c #6CCA9C",
"j+	c #947197",
"k+	c #948688",
"l+	c #A18A98",
"m+	c #C8ACB3",
"n+	c #E471B5",
"o+	c #EAA6B0",
"p+	c #F2E085",
"q+	c #F1DF55",
"r+	c #E8C84E",
"s+	c #AB76BF",
"t+	c #8C45DC",
"u+	c #9142DC",
"v+	c #893CD7",
"w+	c #8031CF",
"x+	c #6E15BF",
"y+	c #6040A6",
"z+	c #57C451",
"A+	c #55D11B",
"B+	c #39A083",
"C+	c #4091AC",
"D+	c #83BC9A",
"E+	c #A06798",
"F+	c #959283",
"G+	c #BF979E",
"H+	c #DB7BB5",
"I+	c #E667B5",
"J+	c #E22DAB",
"K+	c #E232AA",
"L+	c #E5917F",
"M+	c #F0CF1F",
"N+	c #F0D00A",
"O+	c #ECC648",
"P+	c #9E60C9",
"Q+	c #8939DB",
"R+	c #812FD1",
"S+	c #6A12BA",
"T+	c #5F12B0",
"U+	c #3E0867",
"V+	c #33748D",
"W+	c #218699",
"X+	c #387CAB",
"Y+	c #89C2A5",
"Z+	c #816A84",
"`+	c #ABA4A1",
" @	c #AACA84",
".@	c #93DD21",
"+@	c #9EC766",
"@@	c #C96FAB",
"#@	c #E02CAB",
"$@	c #E122A8",
"%@	c #E224A7",
"&@	c #E39285",
"*@	c #F0CD17",
"=@	c #F2CD00",
"-@	c #E7A93D",
";@	c #A558B7",
">@	c #6D16BA",
",@	c #531093",
"'@	c #361162",
")@	c #32688E",
"!@	c #2C91B5",
"~@	c #2DABB0",
"{@	c #6AA69D",
"]@	c #8A6F91",
"^@	c #AC7EAA",
"/@	c #887D85",
"(@	c #9A6CCF",
"_@	c #9980BF",
":@	c #A7BE61",
"<@	c #96D72E",
"[@	c #8BC95D",
"}@	c #CD5DAE",
"|@	c #E51FA5",
"1@	c #E621A5",
"2@	c #E221B2",
"3@	c #D59992",
"4@	c #EEB51E",
"5@	c #E88E1E",
"6@	c #C15C7E",
"7@	c #501372",
"8@	c #342B64",
"9@	c #2C8EA5",
"0@	c #3F95A8",
"a@	c #594F7D",
"b@	c #7B5184",
"c@	c #936293",
"d@	c #B37EAD",
"e@	c #869F5F",
"f@	c #8AA7A0",
"g@	c #945ACF",
"h@	c #9B4FD4",
"i@	c #B494A7",
"j@	c #8DCD53",
"k@	c #81C664",
"l@	c #D352A8",
"m@	c #E220AB",
"n@	c #B220C6",
"o@	c #9336C9",
"p@	c #D59373",
"q@	c #D25B6D",
"r@	c #C5008E",
"s@	c #6B4F8A",
"t@	c #2A96AA",
"u@	c #5B8DA7",
"v@	c #A97DA3",
"w@	c #8C917F",
"x@	c #A9D565",
"y@	c #C9EEA8",
"z@	c #A6D586",
"A@	c #928FBB",
"B@	c #A334D0",
"C@	c #918DA3",
"D@	c #65D612",
"E@	c #959898",
"F@	c #AC1AC4",
"G@	c #7E1BC7",
"H@	c #6411AD",
"I@	c #974383",
"J@	c #C12088",
"K@	c #C16989",
"L@	c #69B6B7",
"M@	c #716A8F",
"N@	c #A979AA",
"O@	c #919D85",
"P@	c #7FD02D",
"Q@	c #CFE8B4",
"R@	c #C5E5A8",
"S@	c #7BD743",
"T@	c #938AB3",
"U@	c #8D84A3",
"V@	c #50D123",
"W@	c #45A883",
"X@	c #7C30C5",
"Y@	c #5D109D",
"Z@	c #3C0B63",
"`@	c #5E1976",
" #	c #C56784",
".#	c #958E7A",
"+#	c #9482A2",
"@#	c #B98CB3",
"##	c #95A18D",
"$#	c #69CA0C",
"%#	c #78D215",
"&#	c #75D013",
"*#	c #60CF1A",
"=#	c #42899D",
"-#	c #685BA8",
";#	c #2E9A82",
">#	c #316BAC",
",#	c #522394",
"'#	c #35095A",
")#	c #353163",
"!#	c #2291A9",
"~#	c #919795",
"{#	c #976A99",
"]#	c #BD9BB2",
"^#	c #8E8D87",
"/#	c #2DAF38",
"(#	c #55CC00",
"_#	c #54CA04",
":#	c #21B353",
"<#	c #27769F",
"[#	c #384998",
"}#	c #207E98",
"|#	c #364F87",
"1#	c #3D0B62",
"2#	c #37005F",
"3#	c #2E95A8",
"4#	c #588BA4",
"5#	c #AD7EAB",
"6#	c #C4A3B3",
"7#	c #548076",
"8#	c #117EA4",
"9#	c #1B7EA8",
"0#	c #2577A3",
"a#	c #304FA9",
"b#	c #3A4099",
"c#	c #4044A3",
"d#	c #382869",
"e#	c #346083",
"f#	c #408FB0",
"g#	c #604D76",
"h#	c #AC7DA8",
"i#	c #55798E",
"j#	c #1F97A9",
"k#	c #209EAD",
"l#	c #2891B1",
"m#	c #2F8BAD",
"n#	c #3293A7",
"o#	c #3293A0",
"p#	c #28939A",
"q#	c #7F7A9B",
"r#	c #B58BA7",
"s#	c #B08CA5",
"t#	c #7E6D88",
"u#	c #596E78",
"v#	c #548184",
"w#	c #557F88",
"x#	c #587384",
"y#	c #706487",
"z#	c #9F6897",
"A#	c #BC94AC",
"B#	c #BA8CA6",
"C#	c #B681A3",
"D#	c #B782A3",
"E#	c #B785A4",
"F#	c #BB8EA6",
"                                                                                                    ",
"                                                                                                    ",
"                                                                                                    ",
"                                                                                                    ",
"                                                                                                    ",
"                                                                                                    ",
"                                                                                                    ",
"                                                                                                    ",
"                                                                                                    ",
"                                                                                                    ",
"                                                    . + @ # $ % & * = - ; >                         ",
"                                                    , ' ) ! ~ { ] ^ / ( _ : <                       ",
"                                                    [ } | 1 2 3 4 5 6 7 8 9 0                       ",
"                                                    a b c d e f g h i j k l m                       ",
"                                                    n o p q r s t u v w x y                         ",
"                                                    z A B C D E F G H I J K                         ",
"                                                    L M N O P Q R S T U V W                         ",
"                                                    X Y Z `  ...+.@.#.$.%.&.                        ",
"                                                    *.=.-.;.>.,.'.).!.~.{.].                        ",
"                                                    ^./.(._.:.<.[.}.|.1.2.3.                        ",
"                                                    4.5.6.7.8.9.0.a.b.c.d.e.                        ",
"                                                    f.g.h.i.j.k.l.m.n.o.p.q.                        ",
"                                                      r.s.t.u.v.w.x.y.z.A.B.                        ",
"                                                    C.D.E.F.G.H.I.J.K.L.M.N.                        ",
"                                                  O.P.Q.R.S.T.U.V.W.X.Y.Z.`.                        ",
"                                                 +.+++@+#+$+%+&+*+=+-+;+>+,+                        ",
"                                            '+)+!+~+{+]+^+/+(+_+:+<+[+}+|+1+2+                      ",
"                                          3+4+5+6+7+8+9+0+a+b+c+d+e+f+g+h+i+j+                      ",
"                                    k+l+m+n+o+p+q+r+s+t+u+v+w+x+y+z+A+B+C+D+E+                      ",
"                                  F+G+H+I+J+K+L+M+N+O+P+Q+R+S+T+U+V+W+X+Y+Z+                        ",
"                                `+ @.@+@@@#@$@%@&@*@=@-@;@>@,@'@)@!@~@{@]@^@                        ",
"                              /@(@_@:@<@[@}@|@1@2@3@4@5@6@7@8@9@0@a@b@c@d@                          ",
"                              e@f@g@h@i@j@k@l@m@n@o@p@q@r@s@t@u@v@                                  ",
"                            w@x@y@z@A@B@C@D@E@F@G@H@I@J@K@L@M@N@                                    ",
"                            O@P@Q@R@S@T@U@V@W@X@Y@Z@`@ #.#+#@#                                      ",
"                            ##$#%#&#*#=#-#;#>#,#'#)#!#~#{#]#                                        ",
"                            ^#/#(#_#:#<#[#}#|#1#2#3#4#5#6#                                          ",
"                              7#8#9#0#a#b#c#d#e#f#g#h#                                              ",
"                                i#j#k#l#m#n#o#p#q#r#                                                ",
"                                s#t#u#v#w#x#y#z#A#                                                  ",
"                                    B#C#D#E#F#                                                      ",
"                                                                                                    ",
"                                                                                                    ",
"                                                                                                    ",
"                                                                                                    ",
"                                                                                                    ",
"                                                                                                    ",
"                                                                                                    ",
"                                                                                                    ",
"                                                                                                    "};
